<?xml version="1.0" standalone="no"?><!DOCTYPE svg PUBLIC "-//W3C//DTD SVG 1.1//EN" "http://www.w3.org/Graphics/SVG/1.1/DTD/svg11.dtd"><svg t="1599198911962" class="icon" viewBox="0 0 1024 1024" version="1.1" xmlns="http://www.w3.org/2000/svg" p-id="4168" xmlns:xlink="http://www.w3.org/1999/xlink" width="200" height="200"><defs><style type="text/css"></style></defs><path d="M345.3 424.4c0 85.1 64.3 155 145.6 166.4v191c0 15.1 13.2 28.4 28.4 28.4 15.1 0 28.4-13.2 28.4-28.4v-104H595c15.1 0 28.4-13.2 28.4-28.4 0-15.1-13.2-28.4-28.4-28.4h-47.3v-32.1c75.6-15.1 134.2-83.2 134.2-164.5 0-92.6-75.6-168.3-168.3-168.3s-168.3 75.7-168.3 168.3z m168.3-111.5c62.4 0 111.5 49.2 111.5 111.5 0 62.4-49.2 111.5-111.5 111.5-62.4 0.1-111.6-49.1-111.6-111.5s49.2-111.5 111.6-111.5z m0 0" p-id="4169" fill="#ffffff"></path><path d="M869 180.5L519.2 67.1c-5.7-1.9-11.3-1.9-17 0L152.4 180.5c-11.3 3.8-18.9 15.1-18.9 26.5v442.4c1.9 15.1 22.7 147.5 366.8 308.2 3.8 1.9 7.6 1.9 11.3 1.9 3.8 0 7.6 0 11.3-1.9 342.2-160.7 364.9-293 366.8-308.2V207c-1.8-11.3-9.4-22.7-20.7-26.5z m-37.8 465.1c-1.9 9.5-34 117.2-321.4 255.2-289.3-138-319.5-245.8-321.4-255.2V227.8l321.4-105.9 321.4 105.9v417.8z m0 0" p-id="4170" fill="#ffffff"></path></svg>