<?xml version="1.0" standalone="no"?><!DOCTYPE svg PUBLIC "-//W3C//DTD SVG 1.1//EN" "http://www.w3.org/Graphics/SVG/1.1/DTD/svg11.dtd"><svg t="1599198882094" class="icon" viewBox="0 0 1136 1024" version="1.1" xmlns="http://www.w3.org/2000/svg" p-id="3685" xmlns:xlink="http://www.w3.org/1999/xlink" width="221.875" height="200"><defs><style type="text/css"></style></defs><path d="M352.865 950.846H204.097c-61.52 0-111.576-54.701-111.576-121.855V194.994c0-67.14 50.056-121.855 111.576-121.855h669.44c61.513 0 111.582 54.715 111.582 121.855v61.013c0 20.184 16.672 36.57 37.199 36.57 20.528 0 37.183-16.386 37.183-36.57v-61.013C1059.501 87.484 976.117 0 873.535 0H204.097C101.593 0 18.137 87.484 18.137 194.994v633.997c0 107.598 83.456 195.009 185.96 195.009h148.768c20.527 0 37.199-16.399 37.199-36.568 0-20.204-16.672-36.586-37.199-36.586z m-148.768-658.27c-20.528 0-37.191 16.386-37.191 36.572s16.663 36.57 37.191 36.57h297.535c20.527 0 37.185-16.386 37.185-36.57s-16.658-36.571-37.185-36.571H204.097zM464.434 548.57c0-20.187-16.657-36.57-37.184-36.57H204.097c-20.528 0-37.191 16.385-37.191 36.57s16.663 36.57 37.191 36.57H427.25c20.528 0.002 37.185-16.385 37.185-36.57z m446.565 68.2c56.113-39.897 92.705-104.786 92.705-177.912 0-120.983-100.11-219.422-223.135-219.422-123.025 0-223.152 98.44-223.152 219.422 0 73.128 36.598 138.017 92.717 177.913-118.43 58.343-204.3 187.063-204.3 297.5 0 20.187 16.67 36.573 37.199 36.573 20.542 0 37.2-16.386 37.2-36.572 0-101.154 116.624-255.991 260.336-255.991s260.336 154.837 260.336 255.99c0 20.187 16.658 36.573 37.197 36.573 20.53 0 37.2-16.386 37.2-36.572 0-110.44-85.872-239.16-204.303-297.502z m-130.432-31.628c-82.112 0-148.766-65.542-148.766-146.284 0-80.684 66.654-146.283 148.766-146.283s148.767 65.599 148.767 146.283c0 80.742-66.655 146.284-148.767 146.284z" p-id="3686" fill="#ffffff"></path></svg>