<?xml version="1.0" standalone="no"?><!DOCTYPE svg PUBLIC "-//W3C//DTD SVG 1.1//EN" "http://www.w3.org/Graphics/SVG/1.1/DTD/svg11.dtd"><svg t="1599640628369" class="icon" viewBox="0 0 1024 1024" version="1.1" xmlns="http://www.w3.org/2000/svg" p-id="2761" xmlns:xlink="http://www.w3.org/1999/xlink" width="200" height="200"><defs><style type="text/css"></style></defs><path d="M507.904 1006.08c-245.76 0-445.952-200.192-445.952-445.952s200.192-445.952 445.952-445.952 445.952 200.192 445.952 445.952-200.192 445.952-445.952 445.952z m0-840.704c-217.6 0-394.752 177.152-394.752 394.752 0 217.6 177.152 394.752 394.752 394.752 217.6 0 394.752-177.152 394.752-394.752 0-217.6-177.152-394.752-394.752-394.752z" p-id="2762"></path><path d="M706.56 587.264H508.416c-14.336 0-25.6-11.264-25.6-25.6s11.264-25.6 25.6-25.6H706.56c14.336 0 25.6 11.264 25.6 25.6s-11.264 25.6-25.6 25.6z" p-id="2763"></path><path d="M508.416 570.88c-14.336 0-25.6-11.264-25.6-25.6V296.96c0-14.336 11.264-25.6 25.6-25.6s25.6 11.264 25.6 25.6v248.32c0 14.336-11.264 25.6-25.6 25.6zM151.04 358.4c-5.632 0-10.752-1.536-15.36-5.12-42.496-32.768-68.096-83.456-68.096-136.192C67.584 122.88 143.872 46.592 238.08 46.592c58.88 0 112.64 29.696 143.872 79.36 7.68 11.776 4.096 27.648-8.192 35.328-11.776 7.68-27.648 4.096-35.328-8.192C316.416 118.272 278.528 97.28 237.568 97.28c-65.536 0-119.296 53.76-119.296 119.296 0 36.864 17.92 72.704 47.616 95.232 11.264 8.704 13.312 24.576 4.608 35.84-4.096 7.168-11.776 10.752-19.456 10.752zM868.352 358.4c-7.68 0-15.36-3.584-20.48-10.24-8.704-11.264-6.656-27.136 4.608-35.84 30.208-23.04 47.616-57.856 47.616-95.232 0-65.536-53.76-119.296-119.296-119.296-40.96 0-78.848 20.992-100.864 55.808-7.68 11.776-23.552 15.36-35.328 8.192-11.776-7.68-15.36-23.552-8.192-35.328C668.16 76.8 721.92 47.104 780.288 47.104c94.208 0 170.496 76.288 170.496 170.496 0 52.736-25.6 103.424-68.096 136.192-3.584 3.072-8.704 4.608-14.336 4.608z" p-id="2764"></path><path d="M122.368 84.992m-31.232 0a31.232 31.232 0 1 0 62.464 0 31.232 31.232 0 1 0-62.464 0Z" p-id="2765"></path><path d="M885.248 79.872m-31.232 0a31.232 31.232 0 1 0 62.464 0 31.232 31.232 0 1 0-62.464 0Z" p-id="2766"></path><path d="M127.488 943.104c-6.656 0-13.312-2.56-17.92-7.68-9.728-10.24-9.728-26.112 0-36.352L180.224 829.44c10.24-9.728 26.112-9.728 36.352 0 9.728 10.24 9.728 26.112 0 36.352l-70.656 70.144c-5.632 4.608-11.776 7.168-18.432 7.168zM884.736 943.104c-6.656 0-12.8-2.56-17.92-7.68L796.16 865.28c-10.24-9.728-10.24-26.112 0-36.352 9.728-10.24 26.112-10.24 36.352 0l70.656 70.144c10.24 9.728 10.24 26.112 0 36.352-5.12 5.12-11.776 7.68-18.432 7.68zM509.44 1001.984c-14.336 0-25.6-11.264-25.6-25.6v-56.32c0-14.336 11.264-25.6 25.6-25.6s25.6 11.264 25.6 25.6v56.32c0 14.336-11.264 25.6-25.6 25.6zM150.016 586.24h-56.32c-14.336 0-25.6-11.264-25.6-25.6s11.264-25.6 25.6-25.6h56.32c14.336 0 25.6 11.264 25.6 25.6s-11.264 25.6-25.6 25.6z" p-id="2767"></path></svg>