<?xml version="1.0" standalone="no"?><!DOCTYPE svg PUBLIC "-//W3C//DTD SVG 1.1//EN" "http://www.w3.org/Graphics/SVG/1.1/DTD/svg11.dtd"><svg t="1599198844925" class="icon" viewBox="0 0 1024 1024" version="1.1" xmlns="http://www.w3.org/2000/svg" p-id="3228" xmlns:xlink="http://www.w3.org/1999/xlink" width="200" height="200"><defs><style type="text/css"></style></defs><path d="M737.4667776 479.5695104L439.24739413 290.96454827c-28.75938133-18.23757653-52.7859712-5.60114347-52.7859712 28.63049386v373.85120427c0 33.8624512 24.02658987 47.62064213 53.59643307 29.81451093l296.59736747-178.01980586h0.00436906c29.5665664-17.73950293 29.9401216-47.18482773 0.80718507-65.67144107z m-86.5533952 31.5293696L462.90807467 623.96716373v-231.8336l188.00530773 118.96531627zM406.00971947 343.56483413l0.3375104 0.21408427c-0.13216427-0.0753664-0.27306667-0.1376256-0.40086187-0.21845333l0.06335147 0.00436906z" fill="#ffffff" p-id="3229"></path><path d="M847.9637504 232.5610496c-0.02839893-0.03495253-0.0720896-0.05352107-0.11250347-0.0753664-7.00470613-8.77090133-17.78210133-14.39607467-29.88004693-14.39607467-21.11351467 0-38.22933333 17.11581867-38.22933333 38.22933334 0 10.17227947 3.98021973 19.4084864 10.45845333 26.2569984l-0.04805973 0.04696746C841.89184 345.02301013 872.99413333 425.15278507 872.99413333 512.54613333c0 199.06996907-161.37803093 360.448-360.448 360.448s-360.448-161.37803093-360.448-360.448 161.37803093-360.448 360.448-360.448l0.01529174-0.15837866c1.1206656 0.098304 2.25225387 0.15837867 3.3980416 0.15837866 21.11351467 0 38.22933333-17.11581867 38.22933333-38.22933333 0-19.79624107-15.0470656-36.077568-34.3277568-38.03272533l0.01856853-0.196608H512.54613333c-241.2969984 0-436.90666667 195.60966827-436.90666666 436.90666666s195.60966827 436.90666667 436.90666666 436.90666667 436.90666667-195.60966827 436.90666667-436.90666667c0-106.5353216-38.13102933-204.1643008-101.4890496-279.98508373z" fill="#ffffff" p-id="3230"></path></svg>